<?xml version="1.0" standalone="no"?>
<!DOCTYPE svg PUBLIC "-//W3C//DTD SVG 20010904//EN"
 "http://www.w3.org/TR/2001/REC-SVG-20010904/DTD/svg10.dtd">
<svg version="1.0" xmlns="http://www.w3.org/2000/svg"
 width="1000.000000pt" height="1000.000000pt" viewBox="0 0 1000.000000 1000.000000"
 preserveAspectRatio="xMidYMid meet">

<g transform="translate(0.000000,1000.000000) scale(0.100000,-0.100000)"
fill="#000000" stroke="none">
<path d="M0 5000 l0 -5000 5000 0 5000 0 0 5000 0 5000 -5000 0 -5000 0 0
-5000z m4068 1111 c10 -5 96 -110 192 -234 170 -220 174 -224 190 -203 9 11
83 112 164 223 81 112 156 207 166 213 32 17 70 11 95 -15 l25 -24 0 -481 0
-481 -25 -24 c-29 -30 -74 -32 -106 -6 l-24 19 -5 362 -5 361 -123 -174 c-67
-96 -129 -178 -138 -181 -35 -13 -71 -5 -96 22 -14 15 -79 99 -144 186 l-119
159 -5 -367 -5 -368 -24 -19 c-32 -26 -77 -24 -106 6 l-25 24 0 481 0 481 25
24 c25 26 63 32 93 16z m1144 -49 c32 -31 33 -75 3 -110 -52 -62 -145 -28
-145 52 0 47 50 91 94 82 17 -4 39 -14 48 -24z m1915 -54 c21 -19 23 -30 23
-110 l0 -88 94 0 c90 0 96 -1 115 -26 12 -15 21 -34 21 -44 0 -10 -9 -29 -21
-44 -19 -25 -25 -26 -115 -26 l-94 0 0 -189 c0 -258 4 -267 126 -278 98 -9
131 -56 83 -117 -19 -24 -26 -26 -96 -26 -100 0 -149 16 -198 65 -59 58 -65
90 -65 334 l0 211 -39 0 c-30 0 -44 6 -55 22 -38 53 -5 118 59 118 l35 0 0 87
c0 75 3 90 22 110 28 30 74 30 105 1z m-4236 -37 c17 -13 23 -29 23 -56 0 -51
-30 -75 -96 -75 l-49 0 3 -72 3 -73 48 -7 c117 -16 241 -66 351 -140 l58 -40
49 48 48 47 -34 39 c-37 40 -42 62 -24 102 13 28 59 51 86 42 10 -3 74 -62
142 -130 108 -108 124 -129 124 -157 0 -23 -8 -39 -28 -57 -36 -31 -77 -24
-122 20 l-33 32 -49 -48 -49 -48 53 -78 c55 -81 104 -196 126 -295 21 -95 16
-285 -10 -380 -84 -313 -318 -542 -629 -616 -73 -18 -109 -20 -222 -17 -118 4
-147 9 -230 37 -230 77 -419 249 -516 468 -67 151 -86 378 -44 538 71 277 278
504 543 596 45 16 108 31 140 35 l57 7 0 73 0 74 -50 0 c-62 0 -90 23 -90 75
0 22 8 43 20 55 19 19 33 20 199 20 160 0 181 -2 202 -19z m2941 -169 c61 -30
116 -86 147 -152 l26 -55 3 -799 2 -799 -22 -24 c-28 -30 -74 -30 -105 -1
l-23 21 0 764 c0 509 -4 778 -11 806 -19 76 -70 118 -146 118 -60 1 -91 -11
-125 -47 -41 -45 -48 -91 -48 -318 0 -202 -1 -211 -22 -233 -29 -31 -77 -31
-107 1 -22 23 -22 27 -19 267 3 242 3 245 30 299 41 85 101 140 180 166 63 20
183 13 240 -14z m1990 16 c93 -28 178 -144 178 -243 0 -83 -17 -125 -74 -181
-74 -75 -178 -96 -260 -54 l-39 19 6 -44 c13 -91 38 -105 200 -114 102 -5 121
-9 133 -25 20 -28 17 -73 -7 -97 -20 -20 -29 -21 -162 -17 -155 4 -193 15
-248 75 -59 63 -64 83 -67 287 -4 215 3 248 67 319 68 76 174 105 273 75z
m-2615 -30 l23 -21 0 -331 c0 -325 0 -330 -22 -353 -28 -30 -74 -30 -105 -1
l-23 21 0 331 c0 325 0 330 22 353 28 30 74 30 105 1z m1081 0 c20 -22 21 -35
24 -253 3 -209 5 -233 23 -264 39 -66 104 -94 182 -79 50 11 97 59 112 115 6
21 11 132 11 247 0 202 1 211 22 233 29 31 77 31 107 -1 22 -23 22 -27 19
-267 -3 -239 -4 -245 -29 -299 -68 -144 -224 -212 -382 -166 -72 21 -155 95
-188 168 -23 50 -24 65 -27 297 -3 240 -3 244 19 267 29 31 78 32 107 2z
m-1520 -935 c13 -11 77 -172 171 -424 83 -224 151 -411 151 -416 0 -25 -43
-63 -70 -63 -44 0 -65 28 -106 142 l-39 108 -151 0 -152 0 -43 -116 c-24 -66
-50 -119 -60 -125 -47 -24 -109 6 -109 54 1 32 295 815 316 838 21 24 65 25
92 2z m797 -261 c49 -25 85 -63 116 -122 23 -43 24 -57 27 -262 3 -208 3 -217
-17 -237 -27 -27 -65 -27 -91 -1 -19 19 -20 33 -20 203 0 201 -8 247 -50 289
-25 24 -36 28 -85 28 -49 0 -60 -4 -85 -28 -42 -42 -50 -88 -50 -289 0 -170
-1 -184 -20 -203 -26 -26 -64 -26 -91 1 -20 20 -20 29 -17 237 l3 217 30 54
c33 61 83 105 141 127 53 20 158 13 209 -14z m936 1 l54 -28 55 28 c48 25 63
28 120 24 80 -5 136 -32 184 -89 57 -66 66 -113 66 -340 0 -185 -1 -199 -20
-218 -11 -11 -31 -20 -45 -20 -14 0 -34 9 -45 20 -19 19 -20 33 -20 208 0 103
-5 204 -10 224 -16 56 -60 88 -124 88 -71 0 -89 -14 -76 -60 5 -19 10 -126 10
-237 0 -190 -1 -204 -20 -223 -11 -11 -31 -20 -45 -20 -14 0 -34 9 -45 20 -19
19 -20 33 -20 208 0 103 -5 204 -10 224 -16 55 -61 88 -120 88 -59 0 -104 -33
-120 -88 -5 -20 -10 -121 -10 -224 0 -175 -1 -189 -20 -208 -11 -11 -31 -20
-45 -20 -14 0 -34 9 -45 20 -19 19 -20 33 -20 218 0 247 9 284 84 357 57 57
95 72 177 74 42 1 68 -6 110 -26z m930 -1 c192 -100 142 -395 -69 -410 -39 -3
-70 1 -96 12 l-39 16 7 -42 c11 -72 30 -82 158 -89 100 -5 113 -8 130 -28 23
-30 23 -56 -2 -81 -17 -17 -33 -20 -126 -20 -132 0 -177 13 -229 65 -56 55
-65 95 -65 274 0 169 8 202 63 260 72 75 175 92 268 43z"/>
<path d="M2525 5521 c-143 -39 -249 -103 -346 -209 -67 -73 -137 -205 -160
-302 -19 -79 -17 -251 4 -330 65 -240 256 -431 497 -496 87 -23 253 -23 340 0
202 54 356 181 451 371 53 108 72 203 66 330 -10 185 -69 319 -201 451 -139
139 -265 193 -461 200 -97 3 -133 0 -190 -15z m198 -143 c44 -23 46 -34 47
-245 l0 -203 138 0 c135 0 139 -1 162 -25 30 -32 31 -79 1 -108 -21 -21 -29
-22 -217 -22 l-196 0 -24 28 c-24 28 -24 28 -24 278 l0 251 29 29 c32 31 50
35 84 17z"/>
<path d="M7689 5677 c-48 -32 -68 -91 -48 -143 17 -44 69 -84 109 -84 40 0 92
40 109 84 13 33 13 44 0 79 -16 47 -66 87 -109 87 -15 0 -42 -10 -61 -23z"/>
<path d="M4672 4475 c-28 -76 -50 -140 -48 -142 2 -2 48 -2 103 -1 l99 3 -47
130 c-27 72 -50 134 -52 139 -2 6 -26 -53 -55 -129z"/>
<path d="M7292 4495 c-46 -20 -68 -75 -53 -127 14 -45 48 -70 96 -70 48 0 82
25 96 70 16 54 -7 107 -55 127 -42 18 -42 18 -84 0z"/>
</g>
</svg>
